{"accessors":[{"name":"mesh1669792502_positions","componentType":5126,"count":408,"min":[-0.014280710369348526,-0.0722813606262207,-0.020068969577550888],"max":[0.24068349599838257,0.1799273043870926,0.23581069707870483],"type":"VEC3","bufferView":0,"byteOffset":0},{"name":"mesh1669792502_normals","componentType":5126,"count":408,"min":[-0.9912645816802979,-0.9805511236190796,-0.9948238134384155],"max":[0.9912645816802979,0.9805511236190796,0.9948238134384155],"type":"VEC3","bufferView":0,"byteOffset":72672},{"name":"mesh1669792502_texcoords","componentType":5126,"count":408,"min":[-0.19232769310474396,0.8010205030441284],"max":[0.1916562020778656,1.141413927078247],"type":"VEC2","bufferView":1,"byteOffset":0},{"name":"mesh1669792502_0_indices","componentType":5123,"count":576,"min":[0],"max":[407],"type":"SCALAR","bufferView":2,"byteOffset":0},{"name":"mesh2120576711_positions","componentType":5126,"count":444,"min":[-0.4058854877948761,-0.2703962028026581,-0.36178499460220337],"max":[0.11192730069160461,0.2336736023426056,0.15152640640735626],"type":"VEC3","bufferView":0,"byteOffset":4896},{"name":"mesh2120576711_normals","componentType":5126,"count":444,"min":[-0.9851741790771484,-0.9590268731117249,-0.9766101241111755],"max":[0.9851741194725037,0.9590268731117249,0.9766101241111755],"type":"VEC3","bufferView":0,"byteOffset":77568},{"name":"mesh2120576711_texcoords","componentType":5126,"count":444,"min":[-0.20902270078659058,0.8020713925361633],"max":[0.2061917930841446,1.1661101579666138],"type":"VEC2","bufferView":1,"byteOffset":3264},{"name":"mesh2120576711_0_indices","componentType":5123,"count":648,"min":[0],"max":[443],"type":"SCALAR","bufferView":2,"byteOffset":1152},{"name":"mesh760503541_positions","componentType":5126,"count":408,"min":[0.1993345022201538,0.05430984124541283,0.07119759917259216],"max":[0.2887307107448578,0.14291520416736603,0.15876330435276031],"type":"VEC3","bufferView":0,"byteOffset":10224},{"name":"mesh760503541_normals","componentType":5126,"count":408,"min":[-0.9992328882217407,-0.9903972148895264,-0.9787734150886536],"max":[0.9992328882217407,0.9903972148895264,0.978773295879364],"type":"VEC3","bufferView":0,"byteOffset":82896},{"name":"mesh760503541_texcoords","componentType":5126,"count":408,"min":[-0.18743659555912018,0.8026204705238342],"max":[0.18564580380916595,1.1485296487808228],"type":"VEC2","bufferView":1,"byteOffset":6816},{"name":"mesh760503541_0_indices","componentType":5123,"count":576,"min":[0],"max":[407],"type":"SCALAR","bufferView":2,"byteOffset":2448},{"name":"mesh596959182_positions","componentType":5126,"count":408,"min":[0.13688920438289642,0.05242776870727539,0.17998330295085907],"max":[0.22509300708770752,0.14099359512329102,0.2661583125591278],"type":"VEC3","bufferView":0,"byteOffset":15120},{"name":"mesh596959182_normals","componentType":5126,"count":408,"min":[-0.985906183719635,-0.9899517297744751,-0.9632285237312317],"max":[0.985906183719635,0.9899517297744751,0.9632285237312317],"type":"VEC3","bufferView":0,"byteOffset":87792},{"name":"mesh596959182_texcoords","componentType":5126,"count":408,"min":[-0.1904177963733673,0.8028597831726074],"max":[0.1887560933828354,1.1643019914627075],"type":"VEC2","bufferView":1,"byteOffset":10080},{"name":"mesh596959182_0_indices","componentType":5123,"count":576,"min":[0],"max":[407],"type":"SCALAR","bufferView":2,"byteOffset":3600},{"name":"mesh1436127406_positions","componentType":5126,"count":408,"min":[0.27316421270370483,0.08610200881958008,0.10998989641666412],"max":[0.30615660548210144,0.118988998234272,0.1433359980583191],"type":"VEC3","bufferView":0,"byteOffset":20016},{"name":"mesh1436127406_normals","componentType":5126,"count":408,"min":[-0.9833999276161194,-0.9802607893943787,-0.9939442276954651],"max":[0.9833999276161194,0.9802607297897339,0.9939442276954651],"type":"VEC3","bufferView":0,"byteOffset":92688},{"name":"mesh1436127406_texcoords","componentType":5126,"count":408,"min":[-0.18471090495586395,0.7960255146026611],"max":[0.1840084046125412,1.1192717552185059],"type":"VEC2","bufferView":1,"byteOffset":13344},{"name":"mesh1436127406_0_indices","componentType":5123,"count":576,"min":[0],"max":[407],"type":"SCALAR","bufferView":2,"byteOffset":4752},{"name":"mesh178433547_positions","componentType":5126,"count":408,"min":[0.21234479546546936,0.08982110023498535,0.22888889908790588],"max":[0.24558110535144806,0.12261509895324707,0.2621009051799774],"type":"VEC3","bufferView":0,"byteOffset":24912},{"name":"mesh178433547_normals","componentType":5126,"count":408,"min":[-0.9906712174415588,-0.9774878025054932,-0.9899467825889587],"max":[0.9906712174415588,0.9774876832962036,0.9899467825889587],"type":"VEC3","bufferView":0,"byteOffset":97584},{"name":"mesh178433547_texcoords","componentType":5126,"count":408,"min":[-0.18847359716892242,0.794964611530304],"max":[0.18777090311050415,1.1335086822509766],"type":"VEC2","bufferView":1,"byteOffset":16608},{"name":"mesh178433547_0_indices","componentType":5123,"count":576,"min":[0],"max":[407],"type":"SCALAR","bufferView":2,"byteOffset":5904},{"name":"mesh261306032_positions","componentType":5126,"count":48,"min":[-0.4594801962375641,-0.07319962978363037,-0.32533809542655945],"max":[-0.3365088105201721,-0.000183939904673025,-0.24336470663547516],"type":"VEC3","bufferView":0,"byteOffset":29808},{"name":"mesh261306032_normals","componentType":5126,"count":48,"min":[-0.6954023838043213,-0.947816789150238,-0.9248839020729065],"max":[0.7974007725715637,0.8738626837730408,0.8164420127868652],"type":"VEC3","bufferView":0,"byteOffset":102480},{"name":"mesh261306032_texcoords","componentType":5126,"count":48,"min":[-0.2003445029258728,0.8788042068481445],"max":[0.20782530307769775,1.0998045206069946],"type":"VEC2","bufferView":1,"byteOffset":19872},{"name":"mesh261306032_0_indices","componentType":5123,"count":66,"min":[0],"max":[47],"type":"SCALAR","bufferView":2,"byteOffset":7056},{"name":"mesh219638077_positions","componentType":5126,"count":34,"min":[-0.6460329294204712,0.06667398661375046,-0.17500390112400055],"max":[-0.17770260572433472,0.13449689745903015,0.5399687886238098],"type":"VEC3","bufferView":0,"byteOffset":30384},{"name":"mesh219638077_normals","componentType":5126,"count":34,"min":[-0.31274649500846863,-0.9980888962745667,-0.15030579268932343],"max":[0.7951552271842957,0.9981228709220886,0.4565984904766083],"type":"VEC3","bufferView":0,"byteOffset":103056},{"name":"mesh219638077_texcoords","componentType":5126,"count":34,"min":[-0.11244930326938629,0.9592148661613464],"max":[0.21947209537029266,1.1542872190475464],"type":"VEC2","bufferView":1,"byteOffset":20256},{"name":"mesh219638077_0_indices","componentType":5123,"count":36,"min":[0],"max":[33],"type":"SCALAR","bufferView":2,"byteOffset":7188},{"name":"mesh1427392846_positions","componentType":5126,"count":34,"min":[-0.22412340342998505,0.028824569657444954,-0.6803776025772095],"max":[0.3772226870059967,0.14846059679985046,-0.0897495374083519],"type":"VEC3","bufferView":0,"byteOffset":30792},{"name":"mesh1427392846_normals","componentType":5126,"count":34,"min":[-0.3300771117210388,-0.993377685546875,-0.22345410287380219],"max":[0.6180233955383301,0.9938576221466064,0.6782227158546448],"type":"VEC3","bufferView":0,"byteOffset":103464},{"name":"mesh1427392846_texcoords","componentType":5126,"count":34,"min":[-0.12451370060443878,0.8817130923271179],"max":[0.19108429551124573,1.01507568359375],"type":"VEC2","bufferView":1,"byteOffset":20528},{"name":"mesh1427392846_0_indices","componentType":5123,"count":36,"min":[0],"max":[33],"type":"SCALAR","bufferView":2,"byteOffset":7260},{"name":"mesh2036169707_positions","componentType":5126,"count":576,"min":[0.16449759900569916,-0.057694438844919205,0.11891649663448334],"max":[0.23526349663734436,0.01510285958647728,0.20400379598140717],"type":"VEC3","bufferView":0,"byteOffset":31200},{"name":"mesh2036169707_normals","componentType":5126,"count":576,"min":[-0.9641873240470886,-0.9765644073486328,-0.9875661134719849],"max":[0.9641873240470886,0.9765644073486328,0.9875661134719849],"type":"VEC3","bufferView":0,"byteOffset":103872},{"name":"mesh2036169707_texcoords","componentType":5126,"count":576,"min":[-0.17865070700645447,0.8053956031799316],"max":[0.17926259338855743,1.1012991666793823],"type":"VEC2","bufferView":1,"byteOffset":20800},{"name":"mesh2036169707_0_indices","componentType":5123,"count":864,"min":[0],"max":[575],"type":"SCALAR","bufferView":2,"byteOffset":7332},{"name":"mesh1116503340_positions","componentType":5126,"count":408,"min":[0.1413384974002838,0.26074889302253723,-0.011168990284204483],"max":[0.1812434047460556,0.3004631996154785,0.02850409969687462],"type":"VEC3","bufferView":0,"byteOffset":38112},{"name":"mesh1116503340_normals","componentType":5126,"count":408,"min":[-0.9976220726966858,-0.9928557276725769,-0.9918274283409119],"max":[0.9976220726966858,0.9928557276725769,0.9918274283409119],"type":"VEC3","bufferView":0,"byteOffset":110784},{"name":"mesh1116503340_texcoords","componentType":5126,"count":408,"min":[-0.20651419460773468,0.7772433757781982],"max":[0.2055370956659317,1.1520638465881348],"type":"VEC2","bufferView":1,"byteOffset":25408},{"name":"mesh1116503340_0_indices","componentType":5123,"count":576,"min":[0],"max":[407],"type":"SCALAR","bufferView":2,"byteOffset":9060},{"name":"mesh1757834803_positions","componentType":5126,"count":408,"min":[0.05969223007559776,0.266338586807251,0.22727090120315552],"max":[0.09953299164772034,0.30602771043777466,0.2661342918872833],"type":"VEC3","bufferView":0,"byteOffset":43008},{"name":"mesh1757834803_normals","componentType":5126,"count":408,"min":[-0.9960188865661621,-0.9922214150428772,-0.9715865254402161],"max":[0.9960188865661621,0.992221474647522,0.9715864062309265],"type":"VEC3","bufferView":0,"byteOffset":115680},{"name":"mesh1757834803_texcoords","componentType":5126,"count":408,"min":[-0.2100553959608078,0.7756463289260864],"max":[0.2108432948589325,1.1526062488555908],"type":"VEC2","bufferView":1,"byteOffset":28672},{"name":"mesh1757834803_0_indices","componentType":5123,"count":576,"min":[0],"max":[407],"type":"SCALAR","bufferView":2,"byteOffset":10212},{"name":"mesh2046956950_positions","componentType":5126,"count":372,"min":[-0.3548029065132141,-0.38483211398124695,-0.08855068683624268],"max":[-0.16461509466171265,-0.22577829658985138,-0.042007360607385635],"type":"VEC3","bufferView":0,"byteOffset":47904},{"name":"mesh2046956950_normals","componentType":5126,"count":372,"min":[-0.7487347722053528,-0.9700685143470764,-0.9535158276557922],"max":[0.7717787027359009,0.9591770768165588,0.9547103047370911],"type":"VEC3","bufferView":0,"byteOffset":120576},{"name":"mesh2046956950_texcoords","componentType":5126,"count":372,"min":[-0.1568083018064499,0.8896337747573853],"max":[0.1576714962720871,1.0674169063568115],"type":"VEC2","bufferView":1,"byteOffset":31936},{"name":"mesh2046956950_0_indices","componentType":5123,"count":564,"min":[0],"max":[371],"type":"SCALAR","bufferView":2,"byteOffset":11364},{"name":"mesh714919555_positions","componentType":5126,"count":348,"min":[-0.5147454142570496,-0.29692721366882324,-0.19325940310955048],"max":[-0.3029954135417938,-0.19270899891853333,-0.1548473984003067],"type":"VEC3","bufferView":0,"byteOffset":52368},{"name":"mesh714919555_normals","componentType":5126,"count":348,"min":[-0.7598817944526672,-0.9544038772583008,-0.9992302060127258],"max":[0.7657231092453003,0.9649667739868164,0.9992600083351135],"type":"VEC3","bufferView":0,"byteOffset":125040},{"name":"mesh714919555_texcoords","componentType":5126,"count":348,"min":[-0.18721160292625427,0.8755007982254028],"max":[0.18694719672203064,1.0922482013702393],"type":"VEC2","bufferView":1,"byteOffset":34912},{"name":"mesh714919555_0_indices","componentType":5123,"count":528,"min":[0],"max":[347],"type":"SCALAR","bufferView":2,"byteOffset":12492},{"name":"mesh1386976961_positions","componentType":5126,"count":276,"min":[-0.15201739966869354,-0.31959038972854614,-0.34464511275291443],"max":[-0.052498310804367065,-0.1931031048297882,-0.2527103126049042],"type":"VEC3","bufferView":0,"byteOffset":56544},{"name":"mesh1386976961_normals","componentType":5126,"count":276,"min":[-0.951670229434967,-0.779133677482605,-0.8195914030075073],"max":[0.9570260047912598,0.7974181175231934,0.8180723786354065],"type":"VEC3","bufferView":0,"byteOffset":129216},{"name":"mesh1386976961_texcoords","componentType":5126,"count":276,"min":[-0.17607299983501434,0.8287166953086853],"max":[0.17554029822349548,1.0907410383224487],"type":"VEC2","bufferView":1,"byteOffset":37696},{"name":"mesh1386976961_0_indices","componentType":5123,"count":420,"min":[0],"max":[275],"type":"SCALAR","bufferView":2,"byteOffset":13548},{"name":"mesh450907185_positions","componentType":5126,"count":228,"min":[-0.062192801386117935,-0.2925910949707031,-0.25244539976119995],"max":[0.02474742941558361,-0.19528110325336456,-0.16405010223388672],"type":"VEC3","bufferView":0,"byteOffset":59856},{"name":"mesh450907185_normals","componentType":5126,"count":228,"min":[-0.8923413157463074,-0.8423035740852356,-0.8372889161109924],"max":[0.9074193835258484,0.8536474704742432,0.8373525142669678],"type":"VEC3","bufferView":0,"byteOffset":132528},{"name":"mesh450907185_texcoords","componentType":5126,"count":228,"min":[-0.17207349836826324,0.8406627178192139],"max":[0.17147870361804962,1.0592072010040283],"type":"VEC2","bufferView":1,"byteOffset":39904},{"name":"mesh450907185_0_indices","componentType":5123,"count":348,"min":[0],"max":[227],"type":"SCALAR","bufferView":2,"byteOffset":14388},{"name":"mesh1290861631_positions","componentType":5126,"count":300,"min":[-0.18569569289684296,-0.3612121045589447,-0.02496027946472168],"max":[-0.08407186716794968,-0.2095637023448944,0.040819231420755386],"type":"VEC3","bufferView":0,"byteOffset":62592},{"name":"mesh1290861631_normals","componentType":5126,"count":300,"min":[-0.9987198710441589,-0.9720029830932617,-0.8967661261558533],"max":[0.9984487295150757,0.9164847731590271,0.8965827822685242],"type":"VEC3","bufferView":0,"byteOffset":135264},{"name":"mesh1290861631_texcoords","componentType":5126,"count":300,"min":[-0.17338310182094574,0.8490080833435059],"max":[0.17366689443588257,1.0005872249603271],"type":"VEC2","bufferView":1,"byteOffset":41728},{"name":"mesh1290861631_0_indices","componentType":5123,"count":456,"min":[0],"max":[299],"type":"SCALAR","bufferView":2,"byteOffset":15084},{"name":"mesh921623927_positions","componentType":5126,"count":150,"min":[0.070782870054245,0.16104340553283691,0.1528708040714264],"max":[0.12179189920425415,0.2898530960083008,0.24819029867649078],"type":"VEC3","bufferView":0,"byteOffset":66192},{"name":"mesh921623927_normals","componentType":5126,"count":150,"min":[-0.9652460813522339,-0.7396925091743469,-0.665335476398468],"max":[0.7172303199768066,0.7625154256820679,0.9494926929473877],"type":"VEC3","bufferView":0,"byteOffset":138864},{"name":"mesh921623927_texcoords","componentType":5126,"count":150,"min":[-0.20385029911994934,0.8312060832977295],"max":[0.19315800070762634,1.1767714023590088],"type":"VEC2","bufferView":1,"byteOffset":44128},{"name":"mesh921623927_0_indices","componentType":5123,"count":222,"min":[0],"max":[149],"type":"SCALAR","bufferView":2,"byteOffset":15996},{"name":"mesh1774446989_positions","componentType":5126,"count":252,"min":[0.038520991802215576,-0.31940001249313354,-0.1796448975801468],"max":[0.0664082020521164,-0.16857799887657166,-0.0990125834941864],"type":"VEC3","bufferView":0,"byteOffset":67992},{"name":"mesh1774446989_normals","componentType":5126,"count":252,"min":[-0.996410071849823,-0.7839530110359192,-0.8706328868865967],"max":[0.9944170117378235,0.5279930233955383,0.8700920939445496],"type":"VEC3","bufferView":0,"byteOffset":140664},{"name":"mesh1774446989_texcoords","componentType":5126,"count":252,"min":[-0.17121009528636932,0.8232262134552002],"max":[0.17043769359588623,1.0194120407104492],"type":"VEC2","bufferView":1,"byteOffset":45328},{"name":"mesh1774446989_0_indices","componentType":5123,"count":384,"min":[0],"max":[251],"type":"SCALAR","bufferView":2,"byteOffset":16440},{"name":"mesh2053837518_positions","componentType":5126,"count":138,"min":[0.14300580322742462,0.1526954025030136,-0.0009795725345611572],"max":[0.1736954003572464,0.2808198928833008,0.06953681260347366],"type":"VEC3","bufferView":0,"byteOffset":71016},{"name":"mesh2053837518_normals","componentType":5126,"count":138,"min":[-0.9964786171913147,-0.9675608277320862,-0.8884915709495544],"max":[0.6638942956924438,0.8717843294143677,0.8572372794151306],"type":"VEC3","bufferView":0,"byteOffset":143688},{"name":"mesh2053837518_texcoords","componentType":5126,"count":138,"min":[-0.17863810062408447,0.7789567112922668],"max":[0.20262959599494934,1.0763025283813477],"type":"VEC2","bufferView":1,"byteOffset":47344},{"name":"mesh2053837518_0_indices","componentType":5123,"count":204,"min":[0],"max":[137],"type":"SCALAR","bufferView":2,"byteOffset":17208}],"asset":{"generator":"obj2gltf","version":"2.0"},"buffers":[{"name":"model","byteLength":211408,"uri":"data:application/octet-stream;base64,"}],"bufferViews":[{"name":"bufferView_0","buffer":0,"byteLength":145344,"byteOffset":0,"byteStride":12,"target":34962},{"name":"bufferView_1","buffer":0,"byteLength":48448,"byteOffset":145344,"byteStride":8,"target":34962},{"name":"bufferView_2","buffer":0,"byteLength":17616,"byteOffset":193792,"target":34963}],"materials":[{"name":"mat2","pbrMetallicRoughness":{"baseColorFactor":[0.4,0.23,0.72,1],"metallicFactor":0,"roughnessFactor":1},"emissiveFactor":[0,0,0],"alphaMode":"OPAQUE","doubleSided":false},{"name":"mat13","pbrMetallicRoughness":{"baseColorFactor":[1,0.6,0,1],"metallicFactor":0,"roughnessFactor":1},"emissiveFactor":[0,0,0],"alphaMode":"OPAQUE","doubleSided":false},{"name":"mat23","pbrMetallicRoughness":{"baseColorFactor":[0.1,0.1,0.1,1],"metallicFactor":0,"roughnessFactor":1},"emissiveFactor":[0,0,0],"alphaMode":"OPAQUE","doubleSided":false},{"name":"mat25","pbrMetallicRoughness":{"baseColorFactor":[0.92,0.95,0.94,0.4],"metallicFactor":0,"roughnessFactor":0.7},"emissiveFactor":[0,0,0],"alphaMode":"BLEND","doubleSided":true},{"name":"mat8","pbrMetallicRoughness":{"baseColorFactor":[0.96,0.26,0.21,1],"metallicFactor":0,"roughnessFactor":1},"emissiveFactor":[0,0,0],"alphaMode":"OPAQUE","doubleSided":false},{"name":"mat12","pbrMetallicRoughness":{"baseColorFactor":[1,0.92,0.23,1],"metallicFactor":0,"roughnessFactor":1},"emissiveFactor":[0,0,0],"alphaMode":"OPAQUE","doubleSided":false}],"meshes":[{"name":"mesh1669792502","primitives":[{"attributes":{"POSITION":0,"NORMAL":1,"TEXCOORD_0":2},"indices":3,"material":0,"mode":4}]},{"name":"mesh2120576711","primitives":[{"attributes":{"POSITION":4,"NORMAL":5,"TEXCOORD_0":6},"indices":7,"material":0,"mode":4}]},{"name":"mesh760503541","primitives":[{"attributes":{"POSITION":8,"NORMAL":9,"TEXCOORD_0":10},"indices":11,"material":1,"mode":4}]},{"name":"mesh596959182","primitives":[{"attributes":{"POSITION":12,"NORMAL":13,"TEXCOORD_0":14},"indices":15,"material":1,"mode":4}]},{"name":"mesh1436127406","primitives":[{"attributes":{"POSITION":16,"NORMAL":17,"TEXCOORD_0":18},"indices":19,"material":2,"mode":4}]},{"name":"mesh178433547","primitives":[{"attributes":{"POSITION":20,"NORMAL":21,"TEXCOORD_0":22},"indices":23,"material":2,"mode":4}]},{"name":"mesh261306032","primitives":[{"attributes":{"POSITION":24,"NORMAL":25,"TEXCOORD_0":26},"indices":27,"material":2,"mode":4}]},{"name":"mesh219638077","primitives":[{"attributes":{"POSITION":28,"NORMAL":29,"TEXCOORD_0":30},"indices":31,"material":3,"mode":4}]},{"name":"mesh1427392846","primitives":[{"attributes":{"POSITION":32,"NORMAL":33,"TEXCOORD_0":34},"indices":35,"material":3,"mode":4}]},{"name":"mesh2036169707","primitives":[{"attributes":{"POSITION":36,"NORMAL":37,"TEXCOORD_0":38},"indices":39,"material":4,"mode":4}]},{"name":"mesh1116503340","primitives":[{"attributes":{"POSITION":40,"NORMAL":41,"TEXCOORD_0":42},"indices":43,"material":5,"mode":4}]},{"name":"mesh1757834803","primitives":[{"attributes":{"POSITION":44,"NORMAL":45,"TEXCOORD_0":46},"indices":47,"material":5,"mode":4}]},{"name":"mesh2046956950","primitives":[{"attributes":{"POSITION":48,"NORMAL":49,"TEXCOORD_0":50},"indices":51,"material":2,"mode":4}]},{"name":"mesh714919555","primitives":[{"attributes":{"POSITION":52,"NORMAL":53,"TEXCOORD_0":54},"indices":55,"material":2,"mode":4}]},{"name":"mesh1386976961","primitives":[{"attributes":{"POSITION":56,"NORMAL":57,"TEXCOORD_0":58},"indices":59,"material":2,"mode":4}]},{"name":"mesh450907185","primitives":[{"attributes":{"POSITION":60,"NORMAL":61,"TEXCOORD_0":62},"indices":63,"material":2,"mode":4}]},{"name":"mesh1290861631","primitives":[{"attributes":{"POSITION":64,"NORMAL":65,"TEXCOORD_0":66},"indices":67,"material":2,"mode":4}]},{"name":"mesh921623927","primitives":[{"attributes":{"POSITION":68,"NORMAL":69,"TEXCOORD_0":70},"indices":71,"material":5,"mode":4}]},{"name":"mesh1774446989","primitives":[{"attributes":{"POSITION":72,"NORMAL":73,"TEXCOORD_0":74},"indices":75,"material":2,"mode":4}]},{"name":"mesh2053837518","primitives":[{"attributes":{"POSITION":76,"NORMAL":77,"TEXCOORD_0":78},"indices":79,"material":5,"mode":4}]}],"nodes":[{"name":"group1669792502","mesh":0},{"name":"group2120576711","mesh":1},{"name":"group760503541","mesh":2},{"name":"group596959182","mesh":3},{"name":"group1436127406","mesh":4},{"name":"group178433547","mesh":5},{"name":"group261306032","mesh":6},{"name":"group219638077","mesh":7},{"name":"group1427392846","mesh":8},{"name":"group2036169707","mesh":9},{"name":"group1116503340","mesh":10},{"name":"group1757834803","mesh":11},{"name":"group2046956950","mesh":12},{"name":"group714919555","mesh":13},{"name":"group1386976961","mesh":14},{"name":"group450907185","mesh":15},{"name":"group1290861631","mesh":16},{"name":"group921623927","mesh":17},{"name":"group1774446989","mesh":18},{"name":"group2053837518","mesh":19}],"scene":0,"scenes":[{"nodes":[0,1,2,3,4,5,6,7,8,9,10,11,12,13,14,15,16,17,18,19]}]}
